Coordinates
version=1
nRows=6
nColumns=63
inDegrees=yes

Units are S.I. units (second, meters, Newtons, ...)
If the header above contains a line with 'inDegrees', this indicates whether rotational values are in degrees (yes) or radians (no).

endheader
time	pelvis_tilt	pelvis_list	pelvis_rotation	pelvis_tx	pelvis_ty	pelvis_tz	hip_flexion_r	hip_adduction_r	hip_rotation_r	knee_angle_r	knee_angle_r_beta	ankle_angle_r	subtalar_angle_r	mtp_angle_r	hip_flexion_l	hip_adduction_l	hip_rotation_l	knee_angle_l	knee_angle_l_beta	ankle_angle_l	subtalar_angle_l	mtp_angle_l	L5_S1_Flex_Ext	L5_S1_Lat_Bending	L5_S1_axial_rotation	L4_L5_Flex_Ext	L4_L5_Lat_Bending	L4_L5_axial_rotation	L3_L4_Flex_Ext	L3_L4_Lat_Bending	L3_L4_axial_rotation	L2_L3_Flex_Ext	L2_L3_Lat_Bending	L2_L3_axial_rotation	L1_L2_Flex_Ext	L1_L2_Lat_Bending	L1_L2_axial_rotation	L1_T12_Flex_Ext	L1_T12_Lat_Bending	L1_T12_axial_rotation	Abs_r3	Abs_r2	Abs_r1	Abs_t1	Abs_t2	neck_flexion	neck_bending	neck_rotation	arm_flex_r	arm_add_r	arm_rot_r	elbow_flex_r	pro_sup_r	wrist_flex_r	wrist_dev_r	arm_flex_l	arm_add_l	arm_rot_l	elbow_flex_l	pro_sup_l	wrist_flex_l	wrist_dev_l
      3.11666667	     11.01740887	     -7.25919540	     93.76222940	      0.26187671	      0.93592888	      0.62096011	      5.42054149	      7.86286557	     -1.82637846	     12.37674956	      0.21601503	     37.14990171	      4.57588744	      0.00000000	      5.37796467	     -8.95065329	      0.63029128	     11.51988138	      0.20105986	     37.17670695	      3.62895879	      0.00000000	      0.27887352	      0.97834669	     -2.89224275	      0.51789601	      1.30120110	     -3.07300792	      0.45816130	      2.37875215	     -3.07300792	      0.31872454	      2.37875215	     -2.53071240	      0.25896195	      1.99504457	     -2.34994723	      0.15934833	      1.51545903	     -2.16918206	      1.99196564	     11.06725345	    -16.08578648	      0.00000000	      0.00000000	     28.21965926	     -4.52667878	      0.22925060	     13.88060166	    -13.49648647	     85.09718228	     18.88020285	     70.38865707	     -9.20479149	      0.71136314	     -7.25919984	    -11.76861751	     21.77007552	     41.60832550	     89.14757955	    -11.53862100	      9.65213539
      3.13333333	     11.03620582	     -6.97759881	     93.75140218	      0.26207498	      0.93621095	      0.62073982	      4.97912040	      7.94245015	     -1.87897551	     11.98308819	      0.20914434	     37.22992928	      4.67093932	      0.00000000	      4.98307283	     -8.99488401	      0.74918065	     11.17014303	      0.19495577	     37.23366633	      3.74346909	      0.00000000	      0.23362294	      0.96927683	     -2.86316491	      0.43386116	      1.28913818	     -3.04211272	      0.38381913	      2.35669967	     -3.04211272	      0.26700766	      2.35669967	     -2.50526930	      0.21694226	      1.97654930	     -2.32632149	      0.13349215	      1.50140980	     -2.14737368	      1.66874530	     10.96465330	    -15.92406430	      0.00000000	      0.00000000	     28.22863119	     -4.52472252	     -0.26286378	     13.88843063	    -13.41160248	     85.45278670	     18.76150600	     69.48584347	     -9.27489924	      0.45822594	     -7.34063509	    -11.94796080	     21.82102168	     41.38496400	     89.05132895	    -12.16397078	      9.40591862
      3.15000000	     10.92333718	     -7.05212603	     93.89555267	      0.26205089	      0.93620506	      0.62113982	      5.17649226	      7.80624808	     -2.04849649	     12.06482307	      0.21057089	     37.48695021	      4.77613235	      0.00000000	      5.17914504	     -8.87376912	      1.01174916	     11.12645902	      0.19419334	     37.37650025	      4.00983328	      0.00000000	      0.23934781	      0.94896521	     -2.87549604	      0.44449282	      1.26212373	     -3.05521455	      0.39322452	      2.30731401	     -3.05521455	      0.27355061	      2.30731401	     -2.51605904	      0.22225838	      1.93512985	     -2.33634053	      0.13676334	      1.46994711	     -2.15662203	      1.70963748	     10.73488424	    -15.99264634	      0.00000000	      0.00000000	     28.21591509	     -4.47509930	     -0.56010713	     13.89444823	    -13.35664210	     85.55537901	     18.83281895	     68.51613912	     -9.14772818	      0.55239744	     -7.43666574	    -12.03968836	     21.52135861	     41.04176325	     89.07243028	    -12.38534815	      9.45222293
      3.16666667	     10.82671809	     -6.98184418	     93.94679957	      0.26216249	      0.93641898	      0.62118568	      5.09096223	      7.72234833	     -2.11809036	     11.92850085	      0.20819161	     37.63353111	      4.94567070	      0.00000000	      5.11820936	     -8.78684951	      1.20021935	     10.97198070	      0.19149719	     37.49145869	      4.18793493	      0.00000000	      0.22508785	      0.93050501	     -2.88677261	      0.41801065	      1.23757166	     -3.06719589	      0.36979683	      2.26242987	     -3.06719589	      0.25725291	      2.26242987	     -2.52592603	      0.20901658	      1.89748581	     -2.34550274	      0.12861520	      1.44135226	     -2.16507945	      1.60778001	     10.52605874	    -16.05536321	      0.00000000	      0.00000000	     28.20891991	     -4.53421023	     -0.80389122	     13.89912567	    -13.29687867	     85.64777082	     18.83835188	     67.53052254	     -8.80404195	      0.47522242	     -7.64191932	    -12.17681659	     21.33774210	     40.80202638	     89.05679156	    -12.72258376	      9.45981751
      3.18333333	     10.66961072	     -6.92273326	     93.80562193	      0.26250111	      0.93665242	      0.62122100	      5.05609506	      7.55800619	     -2.29929830	     11.94034018	      0.20839825	     37.81075242	      5.34874509	      0.00000000	      5.02696596	     -8.67671345	      0.93658723	     10.86551864	      0.18963908	     37.68960222	      4.59390284	      0.00000000	      0.21195575	      0.90535182	     -2.86855916	      0.39362302	      1.20411792	     -3.04784410	      0.34822210	      2.20127242	     -3.04784410	      0.24224423	      2.20127242	     -2.50998926	      0.19682211	      1.84619343	     -2.33070432	      0.12111152	      1.40238997	     -2.15141937	      1.51397873	     10.24152088	    -15.95406547	      0.00000000	      0.00000000	     28.19413145	     -4.72111040	     -1.05809045	     13.86515440	    -13.22655345	     85.43273471	     18.67946992	     66.88266015	     -7.65217986	     -0.14826309	     -7.76813371	    -12.39214897	     21.68076889	     40.44480802	     89.03957010	    -13.29251706	      9.63817423
      3.20000000	     10.66476565	     -6.90743236	     93.71075051	      0.26309666	      0.93675068	      0.62132231	      5.06566715	      7.59663351	     -2.30609798	     11.94282403	      0.20844160	     37.83481212	      5.35981398	      0.00000000	      5.02591376	     -8.72490842	      0.97660403	     10.84892622	      0.18934948	     37.78717964	      4.61425279	      0.00000000	      0.20394468	      0.89506791	     -2.87561313	      0.37874567	      1.19044032	     -3.05533895	      0.33506072	      2.17626811	     -3.05533895	      0.23308838	      2.17626811	     -2.51616149	      0.18938303	      1.82522248	     -2.33643567	      0.11653399	      1.38646019	     -2.15670985	      1.45675648	     10.12518718	    -15.99329753	      0.00000000	      0.00000000	     28.19017846	     -4.77468413	     -1.04867789	     13.84148139	    -13.15902981	     85.38898559	     18.75860130	     66.83350349	     -7.60793219	     -0.14224870	     -8.04661974	    -12.55223159	     21.71342205	     40.10096662	     89.04999090	    -13.31579818	      9.67305112
